<svg width="60" height="85" viewBox="0 0 60 85" fill="none" xmlns="http://www.w3.org/2000/svg">
<path d="M14.8288 46.6104C23.1373 43.8362 31.4051 44.9227 37.171 46.3561C41.3544 47.4022 45.5784 48.668 49.3487 50.8296C54.684 53.8697 59.0594 59.031 59.1001 65.4291C59.027 70.0384 57.1339 74.4346 53.8287 77.6705C50.5145 80.8763 46.2983 83.0067 41.7384 83.7797C34.3084 85.1379 26.4538 83.2364 20.1002 79.1559C13.7466 75.0754 8.85929 69.0067 5.67669 62.1983C1.77844 53.8755 0.16678 44.4604 0.556605 35.3227C1.0337 23.8962 2.70937 9.15796 11.0819 0.499969" stroke="#2D2D2D" stroke-linecap="round" stroke-linejoin="round"/>
<path d="M9.87301 5.95026C9.57046 3.99094 10.4956 2.38996 11.0774 0.499995C9.54023 1.26726 8.05009 2.12415 6.61478 3.06618" stroke="#2D2D2D" stroke-linecap="round" stroke-linejoin="round"/>
<path d="M19.554 59.1079C22.004 59.1079 23.698 60.4939 23.698 62.8459C23.698 65.1279 22.088 66.6679 19.498 66.6679C17.972 66.6679 16.782 66.1219 16.208 65.3379L16.194 66.4999H14.864V56.5319H16.362V60.2419C16.978 59.5419 18.126 59.1079 19.554 59.1079ZM19.302 65.4359C21.08 65.4359 22.2 64.4839 22.2 62.8459C22.2 61.1099 21.066 60.3259 19.302 60.3259C17.566 60.3259 16.292 61.1799 16.292 62.8039C16.292 64.4279 17.552 65.4359 19.302 65.4359ZM33.7627 65.4219H34.2947V66.4999H33.2727C32.3067 66.4999 31.8167 66.1219 31.7327 65.3659C31.1587 66.1359 29.9967 66.6819 28.2187 66.6819C26.1327 66.6819 25.0547 66.0099 25.0547 64.5539C25.0547 63.2239 25.8667 62.5659 28.1627 62.3419L30.5707 62.1039C31.3267 62.0339 31.5227 61.8799 31.5227 61.5439V61.4459C31.5227 60.7319 31.1307 60.2279 29.2547 60.2279C27.6587 60.2279 27.0707 60.5359 26.9167 61.4599L25.4467 61.4459C25.6147 59.8499 26.7767 59.0659 29.3247 59.0659C31.8727 59.0659 33.0207 59.8639 33.0207 61.5439V64.8059C33.0207 65.1979 33.1327 65.4219 33.7627 65.4219ZM28.5407 65.5899C30.2767 65.5899 31.4387 64.8339 31.5227 63.9239V62.9159C31.3827 62.9579 31.2427 62.9999 31.0747 63.0139L28.4847 63.2939C27.0287 63.4479 26.5247 63.7419 26.5247 64.4839C26.5247 65.2959 27.1827 65.5899 28.5407 65.5899ZM39.5933 66.6959C36.9333 66.6959 35.2393 65.3659 35.2393 62.9439C35.2393 60.5079 36.9193 59.0799 39.6493 59.0799C41.9313 59.0799 43.3453 60.0179 43.6393 61.6979H42.2113C41.9593 60.7459 41.1333 60.2699 39.6773 60.2699C37.7313 60.2699 36.7373 61.2219 36.7373 62.8879C36.7373 64.5539 37.8013 65.5199 39.6633 65.5199C41.1053 65.5199 41.9313 64.9319 42.1973 63.9379H43.6253C43.3033 65.6599 41.9453 66.6959 39.5933 66.6959ZM53.264 59.2759L49.498 62.0059L53.544 66.4999H51.766L49.582 64.0499L48.476 62.7479L46.782 63.8959V66.4999H45.284V56.5319H46.782V60.6759L46.712 62.5659L51.29 59.2759H53.264Z" fill="black"/>
</svg>
